<?xml version="1.0" standalone="no"?>
<!DOCTYPE svg PUBLIC "-//W3C//DTD SVG 20010904//EN"
 "http://www.w3.org/TR/2001/REC-SVG-20010904/DTD/svg10.dtd">
<svg version="1.0" xmlns="http://www.w3.org/2000/svg"
 width="260.000000pt" height="260.000000pt" viewBox="0 0 260.000000 260.000000"
 preserveAspectRatio="xMidYMid meet">
<metadata>
Created by potrace 1.11, written by Peter Selinger 2001-2013
</metadata>
<g transform="translate(0.000000,260.000000) scale(0.100000,-0.100000)"
fill="#000000" stroke="none">
<path d="M740 2361 c4 -16 6 -32 3 -35 -4 -3 -7 -351 -7 -772 -1 -577 2 -768
11 -771 6 -3 23 3 37 12 14 10 26 14 26 10 0 -4 7 -2 15 5 8 7 15 11 16 9 0
-2 2 -12 4 -22 7 -39 16 -52 24 -39 4 8 14 14 22 16 8 1 41 15 74 30 33 15 74
34 90 41 210 92 211 93 200 75 -3 -5 -1 -10 4 -10 6 0 11 -11 11 -25 0 -14 5
-25 10 -25 6 0 10 -6 10 -14 0 -8 14 -44 30 -79 17 -36 30 -70 30 -76 0 -6 5
-11 10 -11 6 0 9 -3 9 -8 -1 -4 0 -10 1 -14 1 -5 3 -11 5 -15 1 -5 8 -21 15
-38 7 -16 14 -32 15 -35 0 -3 10 -26 22 -52 12 -25 24 -57 28 -70 4 -12 15
-32 24 -42 13 -16 13 -18 1 -11 -10 6 -9 1 3 -13 11 -11 16 -26 12 -31 -3 -6
-1 -11 4 -11 6 0 11 -4 11 -9 0 -5 9 -29 20 -54 l20 -45 40 15 c22 9 37 20 34
24 -3 5 -2 9 1 9 3 0 12 -14 19 -32 12 -27 46 -49 46 -29 0 11 73 45 89 42 7
-1 10 2 6 8 -3 6 1 11 10 11 17 0 56 20 66 33 3 5 10 9 15 9 5 0 19 5 31 11
21 9 21 12 7 38 -8 16 -15 31 -15 34 -3 24 -13 45 -21 45 -5 0 -7 4 -4 8 2 4
-2 21 -9 37 -34 74 -65 146 -65 150 0 3 -11 28 -25 57 -14 28 -25 55 -25 60 0
4 -14 38 -31 75 -61 135 -99 224 -105 250 -1 6 11 15 27 18 16 4 29 11 29 17
0 6 7 8 15 4 8 -3 15 -1 15 4 0 6 4 10 9 10 5 0 30 10 57 22 27 12 51 23 54
24 3 1 15 5 28 9 12 4 22 11 22 16 0 5 3 8 8 7 4 -1 17 3 30 10 12 7 22 10 22
7 0 -3 10 1 23 10 13 8 27 12 30 8 4 -3 7 -1 7 5 0 7 9 12 19 12 11 0 23 5 26
10 4 6 11 8 16 5 5 -4 9 -4 9 -1 0 11 -100 105 -234 221 -32 28 -75 66 -96 85
-47 43 -156 141 -190 170 -34 29 -143 127 -190 170 -20 19 -66 60 -101 90 -34
30 -76 67 -91 83 -16 15 -30 27 -33 27 -2 0 -27 23 -55 50 -28 28 -54 50 -56
50 -3 0 -23 18 -45 40 -22 22 -42 40 -45 40 -3 0 -19 14 -36 32 -23 25 -31 29
-38 18 -6 -9 -5 -17 2 -21 7 -4 7 -9 -1 -13 -6 -4 -8 -13 -5 -19 7 -12 -27 17
-73 61 -32 30 -43 28 -33 -7z m108 -243 c-2 -54 1 -98 5 -98 5 0 5 -5 2 -10
-11 -18 -11 -550 0 -550 7 0 7 -3 0 -8 -12 -8 -14 -232 -2 -232 5 0 5 -5 1
-11 -4 -6 -6 -80 -6 -163 l1 -152 -30 -18 -29 -17 0 707 0 708 30 -29 c30 -29
30 -30 28 -127z m507 -1190 c10 -24 31 -71 47 -106 15 -34 28 -66 28 -70 0 -5
14 -36 30 -70 17 -34 30 -69 30 -77 0 -8 5 -15 11 -15 5 0 7 -4 4 -10 -3 -5
-1 -10 4 -10 6 0 10 -3 9 -7 -3 -14 14 -63 21 -63 4 0 8 -6 8 -14 0 -15 24
-72 49 -119 13 -22 13 -31 3 -43 -15 -18 -23 -10 -39 41 -7 22 -20 49 -30 60
-10 11 -21 33 -24 50 -4 16 -16 48 -27 72 -10 23 -19 46 -19 50 0 4 -16 40
-35 78 -19 39 -35 75 -35 80 0 6 -18 47 -40 93 -40 82 -46 103 -33 115 12 13
19 7 38 -35z"/>
</g>
</svg>
